<svg xmlns="http://www.w3.org/2000/svg" xmlns:v="https://svgstorm.com"
viewBox = "0 0 488 472"
width="488"
height="472">
<g fill="None" fill-opacity="0.0" stroke="#F0F5F8" stroke-opacity="1.00" stroke-width="0.3"><path d="
M 0.00 472.00 
L 488.00 472.00
L 488.00 0.00
L 0.00 0.00
L 0.00 472.00
M 86.00 405.00 
C 81.37 401.04 76.91 396.58 73.00 392.00
C 64.32 381.84 56.55 372.95 49.25 361.75 C 41.95 350.55 36.06 339.26 30.23 326.77 C 24.40 314.28 20.94 298.34 17.07 284.93 C 13.21 271.51 14.17 249.12 12.00 236.00 C 9.83 222.88 13.46 194.19 29.23 201.77 C 45.00 209.35 31.32 234.16 35.00 248.00 C 38.68 261.84 37.74 281.71 42.99 295.01 C 48.24 308.31 52.18 321.04 58.92 333.08 C 65.66 345.11 71.83 355.26 80.30 365.70 C 88.78 376.13 97.42 384.69 107.75 393.25 C 118.08 401.81 127.16 409.13 139.23 415.77 C 151.30 422.41 163.52 428.02 177.22 432.78 C 190.93 437.53 206.74 440.28 222.00 442.00 C 237.26 443.72 259.20 443.25 274.22 441.22 C 289.24 439.19 303.84 435.16 317.23 430.23 C 330.62 425.30 342.35 420.15 354.08 413.08 C 365.80 406.01 375.34 398.50 385.25 389.25 C 395.16 380.00 403.50 372.65 411.75 361.75 C 420.00 350.86 426.15 340.19 432.77 327.77 C 439.39 315.35 443.28 302.46 447.33 288.33 C 451.37 274.19 454.00 255.65 454.00 240.00
C 454.00 236.00 454.00 232.00 454.00 228.00
C 454.00 212.89 451.85 195.49 448.22 181.78 C 444.60 168.07 440.77 155.42 434.69 143.31 C 428.62 131.19 422.90 121.43 415.23 110.77 C 407.56 100.11 399.37 92.07 389.77 83.23 C 380.17 74.39 372.26 66.80 361.25 59.75 C 350.25 52.69 339.75 47.26 327.32 41.68 C 314.89 36.10 302.01 31.96 287.99 29.01 C 273.97 26.06 255.19 23.12 240.00 24.00 C 224.81 24.88 207.93 26.59 193.99 29.99 C 180.06 33.39 168.16 38.28 155.77 43.77 C 143.38 49.26 133.01 56.01 122.25 63.25 C 111.50 70.50 103.54 78.32 94.25 87.25 C 84.95 96.18 78.28 106.13 70.70 115.70 C 63.11 125.26 57.23 139.00 52.07 149.07 C 46.92 159.14 45.19 182.56 29.78 178.22 C 14.36 173.88 25.32 151.94 29.92 141.92 C 34.53 131.91 41.10 117.57 47.77 107.77 C 54.44 97.97 63.11 87.23 71.00 78.00
C 75.55 72.68 80.73 67.50 86.00 63.00
C 131.87 23.80 190.64 -2.05 252.00 1.00 C 313.36 4.05 366.29 27.71 410.25 70.75 C 454.20 113.80 477.04 171.71 477.00 233.00 C 476.96 294.29 455.13 351.48 411.75 395.75 C 368.37 440.03 316.02 462.42 254.00 466.00 C 191.98 469.58 132.53 444.76 86.00 405.00
M 51.00 244.00 
C 50.39 237.71 50.40 230.23 51.00 224.00
C 51.00 120.02 148.13 38.08 250.00 41.00 C 351.87 43.92 439.03 130.32 439.00 234.00 C 438.97 337.68 351.62 424.20 250.00 427.00 C 148.38 429.80 51.00 347.73 51.00 244.00 Z"/>
</g>
<g fill="None" fill-opacity="0.0" stroke="#273843" stroke-opacity="1.00" stroke-width="0.3"><path d="
M 86.00 63.00 
C 81.08 67.92 75.87 73.13 71.00 78.00
C 63.11 87.23 54.44 97.97 47.77 107.77 C 41.10 117.57 34.53 131.91 29.92 141.92 C 25.32 151.94 14.36 173.88 29.78 178.22 C 45.19 182.56 46.92 159.14 52.07 149.07 C 57.23 139.00 63.11 125.26 70.70 115.70 C 78.28 106.13 84.95 96.18 94.25 87.25 C 103.54 78.32 111.50 70.50 122.25 63.25 C 133.01 56.01 143.38 49.26 155.77 43.77 C 168.16 38.28 180.06 33.39 193.99 29.99 C 207.93 26.59 224.81 24.88 240.00 24.00 C 255.19 23.12 273.97 26.06 287.99 29.01 C 302.01 31.96 314.89 36.10 327.32 41.68 C 339.75 47.26 350.25 52.69 361.25 59.75 C 372.26 66.80 380.17 74.39 389.77 83.23 C 399.37 92.07 407.56 100.11 415.23 110.77 C 422.90 121.43 428.62 131.19 434.69 143.31 C 440.77 155.42 444.60 168.07 448.22 181.78 C 451.85 195.49 454.00 212.89 454.00 228.00
C 454.37 231.77 454.36 236.29 454.00 240.00
C 454.00 255.65 451.37 274.19 447.33 288.33 C 443.28 302.46 439.39 315.35 432.77 327.77 C 426.15 340.19 420.00 350.86 411.75 361.75 C 403.50 372.65 395.16 380.00 385.25 389.25 C 375.34 398.50 365.80 406.01 354.08 413.08 C 342.35 420.15 330.62 425.30 317.23 430.23 C 303.84 435.16 289.24 439.19 274.22 441.22 C 259.20 443.25 237.26 443.72 222.00 442.00 C 206.74 440.28 190.93 437.53 177.22 432.78 C 163.52 428.02 151.30 422.41 139.23 415.77 C 127.16 409.13 118.08 401.81 107.75 393.25 C 97.42 384.69 88.78 376.13 80.30 365.70 C 71.83 355.26 65.66 345.11 58.92 333.08 C 52.18 321.04 48.24 308.31 42.99 295.01 C 37.74 281.71 38.68 261.84 35.00 248.00 C 31.32 234.16 45.00 209.35 29.23 201.77 C 13.46 194.19 9.83 222.88 12.00 236.00 C 14.17 249.12 13.21 271.51 17.07 284.93 C 20.94 298.34 24.40 314.28 30.23 326.77 C 36.06 339.26 41.95 350.55 49.25 361.75 C 56.55 372.95 64.32 381.84 73.00 392.00
C 77.25 396.25 81.79 400.79 86.00 405.00
C 132.53 444.76 191.98 469.58 254.00 466.00 C 316.02 462.42 368.37 440.03 411.75 395.75 C 455.13 351.48 476.96 294.29 477.00 233.00 C 477.04 171.71 454.20 113.80 410.25 70.75 C 366.29 27.71 313.36 4.05 252.00 1.00 C 190.64 -2.05 131.87 23.80 86.00 63.00 Z"/>
</g>
<g fill="None" fill-opacity="0.0" stroke="#273742" stroke-opacity="1.00" stroke-width="0.3"><path d="
M 51.00 224.00 
C 51.00 230.67 51.00 237.33 51.00 244.00
C 51.00 347.73 148.38 429.80 250.00 427.00 C 351.62 424.20 438.97 337.68 439.00 234.00 C 439.03 130.32 351.87 43.92 250.00 41.00 C 148.13 38.08 51.00 120.02 51.00 224.00
M 356.00 118.00 
C 353.53 120.89 350.61 123.39 348.00 126.00
C 329.08 148.14 306.14 167.20 286.75 188.75 C 267.36 210.30 244.64 230.49 224.00 250.00
C 213.87 236.01 200.12 228.58 188.75 214.25 C 177.39 199.92 153.17 195.09 143.23 214.23 C 133.29 233.37 148.55 248.37 163.00 260.00
C 166.24 262.77 169.06 266.06 172.00 269.00
C 188.03 282.70 198.25 300.47 217.69 309.31 C 237.14 318.14 255.78 290.81 268.75 277.75 C 281.72 264.69 299.80 248.28 312.00 234.00
C 317.19 227.92 323.42 222.58 329.00 217.00
C 348.99 193.60 373.68 173.72 394.00 151.00
C 428.98 210.35 420.91 294.05 374.00 345.00
C 370.80 349.05 366.86 352.70 363.00 356.00
C 353.69 363.96 346.77 370.83 336.25 377.25 C 325.74 383.67 315.40 388.88 303.32 393.32 C 291.25 397.77 277.45 401.31 263.98 402.98 C 250.50 404.64 231.21 404.30 218.00 402.00 C 204.79 399.71 191.62 396.07 179.78 391.22 C 167.93 386.38 158.21 380.89 147.92 374.08 C 137.63 367.27 130.20 360.44 121.25 351.75 C 112.29 343.06 106.40 334.67 99.70 324.31 C 92.99 313.94 87.34 304.07 83.08 291.92 C 78.81 279.77 75.47 265.40 74.00 252.00 C 72.53 238.60 72.82 220.10 75.00 207.00 C 77.18 193.90 81.19 180.66 85.93 168.93 C 90.66 157.19 96.42 147.36 103.30 137.30 C 110.18 127.25 117.45 119.88 126.25 111.25 C 135.04 102.61 143.28 96.30 153.75 89.75 C 164.22 83.19 174.59 78.19 186.69 73.69 C 198.80 69.20 213.44 66.20 227.00 65.00 C 240.56 63.80 259.89 63.20 273.00 66.00 C 286.12 68.79 299.08 71.88 310.69 77.31 C 322.31 82.73 332.26 87.21 342.23 94.77 C 352.20 102.33 365.57 106.80 356.00 118.00 Z"/>
</g>
<g fill="None" fill-opacity="0.0" stroke="#7F8B90" stroke-opacity="1.00" stroke-width="0.3"><path d="
M 71.00 78.00 
C 75.87 73.13 81.08 67.92 86.00 63.00
C 80.73 67.50 75.55 72.68 71.00 78.00 Z"/>
</g>
<g fill="None" fill-opacity="0.0" stroke="#F8FAFC" stroke-opacity="1.00" stroke-width="0.3"><path d="
M 363.00 356.00 
C 366.53 352.47 370.67 348.60 374.00 345.00
C 420.91 294.05 428.98 210.35 394.00 151.00
C 373.68 173.72 348.99 193.60 329.00 217.00
C 323.81 223.08 317.58 228.42 312.00 234.00
C 299.80 248.28 281.72 264.69 268.75 277.75 C 255.78 290.81 237.14 318.14 217.69 309.31 C 198.25 300.47 188.03 282.70 172.00 269.00
C 168.76 266.23 165.94 262.94 163.00 260.00
C 148.55 248.37 133.29 233.37 143.23 214.23 C 153.17 195.09 177.39 199.92 188.75 214.25 C 200.12 228.58 213.87 236.01 224.00 250.00
C 244.64 230.49 267.36 210.30 286.75 188.75 C 306.14 167.20 329.08 148.14 348.00 126.00
C 350.47 123.11 353.39 120.61 356.00 118.00
C 365.57 106.80 352.20 102.33 342.23 94.77 C 332.26 87.21 322.31 82.73 310.69 77.31 C 299.08 71.88 286.12 68.79 273.00 66.00 C 259.89 63.20 240.56 63.80 227.00 65.00 C 213.44 66.20 198.80 69.20 186.69 73.69 C 174.59 78.19 164.22 83.19 153.75 89.75 C 143.28 96.30 135.04 102.61 126.25 111.25 C 117.45 119.88 110.18 127.25 103.30 137.30 C 96.42 147.36 90.66 157.19 85.93 168.93 C 81.19 180.66 77.18 193.90 75.00 207.00 C 72.82 220.10 72.53 238.60 74.00 252.00 C 75.47 265.40 78.81 279.77 83.08 291.92 C 87.34 304.07 92.99 313.94 99.70 324.31 C 106.40 334.67 112.29 343.06 121.25 351.75 C 130.20 360.44 137.63 367.27 147.92 374.08 C 158.21 380.89 167.93 386.38 179.78 391.22 C 191.62 396.07 204.79 399.71 218.00 402.00 C 231.21 404.30 250.50 404.64 263.98 402.98 C 277.45 401.31 291.25 397.77 303.32 393.32 C 315.40 388.88 325.74 383.67 336.25 377.25 C 346.77 370.83 353.69 363.96 363.00 356.00 Z"/>
</g>
<g fill="None" fill-opacity="0.0" stroke="#879197" stroke-opacity="1.00" stroke-width="0.3"><path d="
M 348.00 126.00 
C 350.61 123.39 353.53 120.89 356.00 118.00
C 353.39 120.61 350.47 123.11 348.00 126.00 Z"/>
</g>
<g fill="None" fill-opacity="0.0" stroke="#899298" stroke-opacity="1.00" stroke-width="0.3"><path d="
M 312.00 234.00 
C 317.58 228.42 323.81 223.08 329.00 217.00
C 323.42 222.58 317.19 227.92 312.00 234.00 Z"/>
</g>
<g fill="None" fill-opacity="0.0" stroke="#808A90" stroke-opacity="1.00" stroke-width="0.3"><path d="
M 51.00 244.00 
C 51.00 237.33 51.00 230.67 51.00 224.00
C 50.40 230.23 50.39 237.71 51.00 244.00 Z"/>
</g>
<g fill="None" fill-opacity="0.0" stroke="#6F7F85" stroke-opacity="1.00" stroke-width="0.3"><path d="
M 454.00 240.00 
C 454.36 236.29 454.37 231.77 454.00 228.00
C 454.00 232.00 454.00 236.00 454.00 240.00 Z"/>
</g>
<g fill="None" fill-opacity="0.0" stroke="#889097" stroke-opacity="1.00" stroke-width="0.3"><path d="
M 172.00 269.00 
C 169.06 266.06 166.24 262.77 163.00 260.00
C 165.94 262.94 168.76 266.23 172.00 269.00 Z"/>
</g>
<g fill="None" fill-opacity="0.0" stroke="#878F95" stroke-opacity="1.00" stroke-width="0.3"><path d="
M 363.00 356.00 
C 366.86 352.70 370.80 349.05 374.00 345.00
C 370.67 348.60 366.53 352.47 363.00 356.00 Z"/>
</g>
<g fill="None" fill-opacity="0.0" stroke="#838E96" stroke-opacity="1.00" stroke-width="0.3"><path d="
M 86.00 405.00 
C 81.79 400.79 77.25 396.25 73.00 392.00
C 76.91 396.58 81.37 401.04 86.00 405.00 Z"/>
</g>
<g fill="#F0F5F8" fill-opacity="1.00" stroke="None">
<path d="
M 0.00 472.00 
L 488.00 472.00
L 488.00 0.00
L 0.00 0.00
L 0.00 472.00
M 86.00 405.00 
C 81.37 401.04 76.91 396.58 73.00 392.00
C 64.32 381.84 56.55 372.95 49.25 361.75 C 41.95 350.55 36.06 339.26 30.23 326.77 C 24.40 314.28 20.94 298.34 17.07 284.93 C 13.21 271.51 14.17 249.12 12.00 236.00 C 9.83 222.88 13.46 194.19 29.23 201.77 C 45.00 209.35 31.32 234.16 35.00 248.00 C 38.68 261.84 37.74 281.71 42.99 295.01 C 48.24 308.31 52.18 321.04 58.92 333.08 C 65.66 345.11 71.83 355.26 80.30 365.70 C 88.78 376.13 97.42 384.69 107.75 393.25 C 118.08 401.81 127.16 409.13 139.23 415.77 C 151.30 422.41 163.52 428.02 177.22 432.78 C 190.93 437.53 206.74 440.28 222.00 442.00 C 237.26 443.72 259.20 443.25 274.22 441.22 C 289.24 439.19 303.84 435.16 317.23 430.23 C 330.62 425.30 342.35 420.15 354.08 413.08 C 365.80 406.01 375.34 398.50 385.25 389.25 C 395.16 380.00 403.50 372.65 411.75 361.75 C 420.00 350.86 426.15 340.19 432.77 327.77 C 439.39 315.35 443.28 302.46 447.33 288.33 C 451.37 274.19 454.00 255.65 454.00 240.00
C 454.00 236.00 454.00 232.00 454.00 228.00
C 454.00 212.89 451.85 195.49 448.22 181.78 C 444.60 168.07 440.77 155.42 434.69 143.31 C 428.62 131.19 422.90 121.43 415.23 110.77 C 407.56 100.11 399.37 92.07 389.77 83.23 C 380.17 74.39 372.26 66.80 361.25 59.75 C 350.25 52.69 339.75 47.26 327.32 41.68 C 314.89 36.10 302.01 31.96 287.99 29.01 C 273.97 26.06 255.19 23.12 240.00 24.00 C 224.81 24.88 207.93 26.59 193.99 29.99 C 180.06 33.39 168.16 38.28 155.77 43.77 C 143.38 49.26 133.01 56.01 122.25 63.25 C 111.50 70.50 103.54 78.32 94.25 87.25 C 84.95 96.18 78.28 106.13 70.70 115.70 C 63.11 125.26 57.23 139.00 52.07 149.07 C 46.92 159.14 45.19 182.56 29.78 178.22 C 14.36 173.88 25.32 151.94 29.92 141.92 C 34.53 131.91 41.10 117.57 47.77 107.77 C 54.44 97.97 63.11 87.23 71.00 78.00
C 75.55 72.68 80.73 67.50 86.00 63.00
C 131.87 23.80 190.64 -2.05 252.00 1.00 C 313.36 4.05 366.29 27.71 410.25 70.75 C 454.20 113.80 477.04 171.71 477.00 233.00 C 476.96 294.29 455.13 351.48 411.75 395.75 C 368.37 440.03 316.02 462.42 254.00 466.00 C 191.98 469.58 132.53 444.76 86.00 405.00
M 51.00 244.00 
C 50.39 237.71 50.40 230.23 51.00 224.00
C 51.00 120.02 148.13 38.08 250.00 41.00 C 351.87 43.92 439.03 130.32 439.00 234.00 C 438.97 337.68 351.62 424.20 250.00 427.00 C 148.38 429.80 51.00 347.73 51.00 244.00 Z"/>
</g>
<g fill="#273843" fill-opacity="1.00" stroke="None">
<path d="
M 86.00 63.00 
C 81.08 67.92 75.87 73.13 71.00 78.00
C 63.11 87.23 54.44 97.97 47.77 107.77 C 41.10 117.57 34.53 131.91 29.92 141.92 C 25.32 151.94 14.36 173.88 29.78 178.22 C 45.19 182.56 46.92 159.14 52.07 149.07 C 57.23 139.00 63.11 125.26 70.70 115.70 C 78.28 106.13 84.95 96.18 94.25 87.25 C 103.54 78.32 111.50 70.50 122.25 63.25 C 133.01 56.01 143.38 49.26 155.77 43.77 C 168.16 38.28 180.06 33.39 193.99 29.99 C 207.93 26.59 224.81 24.88 240.00 24.00 C 255.19 23.12 273.97 26.06 287.99 29.01 C 302.01 31.96 314.89 36.10 327.32 41.68 C 339.75 47.26 350.25 52.69 361.25 59.75 C 372.26 66.80 380.17 74.39 389.77 83.23 C 399.37 92.07 407.56 100.11 415.23 110.77 C 422.90 121.43 428.62 131.19 434.69 143.31 C 440.77 155.42 444.60 168.07 448.22 181.78 C 451.85 195.49 454.00 212.89 454.00 228.00
C 454.37 231.77 454.36 236.29 454.00 240.00
C 454.00 255.65 451.37 274.19 447.33 288.33 C 443.28 302.46 439.39 315.35 432.77 327.77 C 426.15 340.19 420.00 350.86 411.75 361.75 C 403.50 372.65 395.16 380.00 385.25 389.25 C 375.34 398.50 365.80 406.01 354.08 413.08 C 342.35 420.15 330.62 425.30 317.23 430.23 C 303.84 435.16 289.24 439.19 274.22 441.22 C 259.20 443.25 237.26 443.72 222.00 442.00 C 206.74 440.28 190.93 437.53 177.22 432.78 C 163.52 428.02 151.30 422.41 139.23 415.77 C 127.16 409.13 118.08 401.81 107.75 393.25 C 97.42 384.69 88.78 376.13 80.30 365.70 C 71.83 355.26 65.66 345.11 58.92 333.08 C 52.18 321.04 48.24 308.31 42.99 295.01 C 37.74 281.71 38.68 261.84 35.00 248.00 C 31.32 234.16 45.00 209.35 29.23 201.77 C 13.46 194.19 9.83 222.88 12.00 236.00 C 14.17 249.12 13.21 271.51 17.07 284.93 C 20.94 298.34 24.40 314.28 30.23 326.77 C 36.06 339.26 41.95 350.55 49.25 361.75 C 56.55 372.95 64.32 381.84 73.00 392.00
C 77.25 396.25 81.79 400.79 86.00 405.00
C 132.53 444.76 191.98 469.58 254.00 466.00 C 316.02 462.42 368.37 440.03 411.75 395.75 C 455.13 351.48 476.96 294.29 477.00 233.00 C 477.04 171.71 454.20 113.80 410.25 70.75 C 366.29 27.71 313.36 4.05 252.00 1.00 C 190.64 -2.05 131.87 23.80 86.00 63.00 Z"/>
</g>
<g fill="#273742" fill-opacity="1.00" stroke="None">
<path d="
M 51.00 224.00 
C 51.00 230.67 51.00 237.33 51.00 244.00
C 51.00 347.73 148.38 429.80 250.00 427.00 C 351.62 424.20 438.97 337.68 439.00 234.00 C 439.03 130.32 351.87 43.92 250.00 41.00 C 148.13 38.08 51.00 120.02 51.00 224.00
M 356.00 118.00 
C 353.53 120.89 350.61 123.39 348.00 126.00
C 329.08 148.14 306.14 167.20 286.75 188.75 C 267.36 210.30 244.64 230.49 224.00 250.00
C 213.87 236.01 200.12 228.58 188.75 214.25 C 177.39 199.92 153.17 195.09 143.23 214.23 C 133.29 233.37 148.55 248.37 163.00 260.00
C 166.24 262.77 169.06 266.06 172.00 269.00
C 188.03 282.70 198.25 300.47 217.69 309.31 C 237.14 318.14 255.78 290.81 268.75 277.75 C 281.72 264.69 299.80 248.28 312.00 234.00
C 317.19 227.92 323.42 222.58 329.00 217.00
C 348.99 193.60 373.68 173.72 394.00 151.00
C 428.98 210.35 420.91 294.05 374.00 345.00
C 370.80 349.05 366.86 352.70 363.00 356.00
C 353.69 363.96 346.77 370.83 336.25 377.25 C 325.74 383.67 315.40 388.88 303.32 393.32 C 291.25 397.77 277.45 401.31 263.98 402.98 C 250.50 404.64 231.21 404.30 218.00 402.00 C 204.79 399.71 191.62 396.07 179.78 391.22 C 167.93 386.38 158.21 380.89 147.92 374.08 C 137.63 367.27 130.20 360.44 121.25 351.75 C 112.29 343.06 106.40 334.67 99.70 324.31 C 92.99 313.94 87.34 304.07 83.08 291.92 C 78.81 279.77 75.47 265.40 74.00 252.00 C 72.53 238.60 72.82 220.10 75.00 207.00 C 77.18 193.90 81.19 180.66 85.93 168.93 C 90.66 157.19 96.42 147.36 103.30 137.30 C 110.18 127.25 117.45 119.88 126.25 111.25 C 135.04 102.61 143.28 96.30 153.75 89.75 C 164.22 83.19 174.59 78.19 186.69 73.69 C 198.80 69.20 213.44 66.20 227.00 65.00 C 240.56 63.80 259.89 63.20 273.00 66.00 C 286.12 68.79 299.08 71.88 310.69 77.31 C 322.31 82.73 332.26 87.21 342.23 94.77 C 352.20 102.33 365.57 106.80 356.00 118.00 Z"/>
</g>
<g fill="#7F8B90" fill-opacity="1.00" stroke="None">
<path d="
M 71.00 78.00 
C 75.87 73.13 81.08 67.92 86.00 63.00
C 80.73 67.50 75.55 72.68 71.00 78.00 Z"/>
</g>
<g fill="#F8FAFC" fill-opacity="1.00" stroke="None">
<path d="
M 363.00 356.00 
C 366.53 352.47 370.67 348.60 374.00 345.00
C 420.91 294.05 428.98 210.35 394.00 151.00
C 373.68 173.72 348.99 193.60 329.00 217.00
C 323.81 223.08 317.58 228.42 312.00 234.00
C 299.80 248.28 281.72 264.69 268.75 277.75 C 255.78 290.81 237.14 318.14 217.69 309.31 C 198.25 300.47 188.03 282.70 172.00 269.00
C 168.76 266.23 165.94 262.94 163.00 260.00
C 148.55 248.37 133.29 233.37 143.23 214.23 C 153.17 195.09 177.39 199.92 188.75 214.25 C 200.12 228.58 213.87 236.01 224.00 250.00
C 244.64 230.49 267.36 210.30 286.75 188.75 C 306.14 167.20 329.08 148.14 348.00 126.00
C 350.47 123.11 353.39 120.61 356.00 118.00
C 365.57 106.80 352.20 102.33 342.23 94.77 C 332.26 87.21 322.31 82.73 310.69 77.31 C 299.08 71.88 286.12 68.79 273.00 66.00 C 259.89 63.20 240.56 63.80 227.00 65.00 C 213.44 66.20 198.80 69.20 186.69 73.69 C 174.59 78.19 164.22 83.19 153.75 89.75 C 143.28 96.30 135.04 102.61 126.25 111.25 C 117.45 119.88 110.18 127.25 103.30 137.30 C 96.42 147.36 90.66 157.19 85.93 168.93 C 81.19 180.66 77.18 193.90 75.00 207.00 C 72.82 220.10 72.53 238.60 74.00 252.00 C 75.47 265.40 78.81 279.77 83.08 291.92 C 87.34 304.07 92.99 313.94 99.70 324.31 C 106.40 334.67 112.29 343.06 121.25 351.75 C 130.20 360.44 137.63 367.27 147.92 374.08 C 158.21 380.89 167.93 386.38 179.78 391.22 C 191.62 396.07 204.79 399.71 218.00 402.00 C 231.21 404.30 250.50 404.64 263.98 402.98 C 277.45 401.31 291.25 397.77 303.32 393.32 C 315.40 388.88 325.74 383.67 336.25 377.25 C 346.77 370.83 353.69 363.96 363.00 356.00 Z"/>
</g>
<g fill="#879197" fill-opacity="1.00" stroke="None">
<path d="
M 348.00 126.00 
C 350.61 123.39 353.53 120.89 356.00 118.00
C 353.39 120.61 350.47 123.11 348.00 126.00 Z"/>
</g>
<g fill="#899298" fill-opacity="1.00" stroke="None">
<path d="
M 312.00 234.00 
C 317.58 228.42 323.81 223.08 329.00 217.00
C 323.42 222.58 317.19 227.92 312.00 234.00 Z"/>
</g>
<g fill="#808A90" fill-opacity="1.00" stroke="None">
<path d="
M 51.00 244.00 
C 51.00 237.33 51.00 230.67 51.00 224.00
C 50.40 230.23 50.39 237.71 51.00 244.00 Z"/>
</g>
<g fill="#6F7F85" fill-opacity="1.00" stroke="None">
<path d="
M 454.00 240.00 
C 454.36 236.29 454.37 231.77 454.00 228.00
C 454.00 232.00 454.00 236.00 454.00 240.00 Z"/>
</g>
<g fill="#889097" fill-opacity="1.00" stroke="None">
<path d="
M 172.00 269.00 
C 169.06 266.06 166.24 262.77 163.00 260.00
C 165.94 262.94 168.76 266.23 172.00 269.00 Z"/>
</g>
<g fill="#878F95" fill-opacity="1.00" stroke="None">
<path d="
M 363.00 356.00 
C 366.86 352.70 370.80 349.05 374.00 345.00
C 370.67 348.60 366.53 352.47 363.00 356.00 Z"/>
</g>
<g fill="#838E96" fill-opacity="1.00" stroke="None">
<path d="
M 86.00 405.00 
C 81.79 400.79 77.25 396.25 73.00 392.00
C 76.91 396.58 81.37 401.04 86.00 405.00 Z"/>
</g>
</svg>